<?xml version="1.0" encoding="UTF-8" standalone="no"?>
<!-- Created with Inkscape (http://www.inkscape.org/) -->

<svg
   width="90"
   height="40"
   viewBox="0 0 23.812499 10.583333"
   version="1.1"
   id="svg1"
   inkscape:version="1.3.2 (091e20e, 2023-11-25, custom)"
   sodipodi:docname="confirm button pressed.svg"
   xmlns:inkscape="http://www.inkscape.org/namespaces/inkscape"
   xmlns:sodipodi="http://sodipodi.sourceforge.net/DTD/sodipodi-0.dtd"
   xmlns="http://www.w3.org/2000/svg"
   xmlns:svg="http://www.w3.org/2000/svg">
  <sodipodi:namedview
     id="namedview1"
     pagecolor="#505050"
     bordercolor="#eeeeee"
     borderopacity="1"
     inkscape:showpageshadow="0"
     inkscape:pageopacity="0"
     inkscape:pagecheckerboard="0"
     inkscape:deskcolor="#d1d1d1"
     inkscape:document-units="px"
     inkscape:zoom="11.702245"
     inkscape:cx="39.137789"
     inkscape:cy="19.697075"
     inkscape:window-width="1920"
     inkscape:window-height="1009"
     inkscape:window-x="-8"
     inkscape:window-y="-8"
     inkscape:window-maximized="1"
     inkscape:current-layer="layer1" />
  <defs
     id="defs1">
    <rect
       x="7.1781096"
       y="9.2289982"
       width="67.252052"
       height="25.123384"
       id="rect3" />
    <rect
       x="7.8617396"
       y="7.6053786"
       width="64.090271"
       height="25.721561"
       id="rect2" />
  </defs>
  <g
     inkscape:label="Layer 1"
     inkscape:groupmode="layer"
     id="layer1">
    <rect
       style="fill:#45206e;fill-opacity:1;stroke:#00fcff;stroke-width:0.928973;stroke-linecap:round;stroke-linejoin:round;stroke-miterlimit:2;stroke-dasharray:none"
       id="rect1"
       width="22.883526"
       height="9.6543598"
       x="0.46448669"
       y="0.46448654"
       ry="0.61982381" />
    <path
       d="m 4.2253884,7.0749608 q -0.4868337,0 -0.8413756,-0.2010834 Q 3.0347626,6.6727939 2.8442625,6.2970854 2.6537624,5.9213768 2.6537624,5.4080848 q 0,-0.4233336 0.1270001,-0.7620004 Q 2.9130542,4.3021258 3.156471,4.058709 3.3998879,3.8152922 3.7385547,3.6830004 4.0825133,3.5507087 4.5058469,3.5507087 q 0.1640417,0 0.3386668,0.021167 0.1799168,0.021167 0.3280836,0.047625 0.1481667,0.026458 0.2434168,0.047625 0.09525,0.015875 0.09525,0.015875 l 0.03175,0.068792 q 0,0 -0.03175,0.1322917 -0.026458,0.1322917 -0.058208,0.3598336 -0.03175,0.2222501 -0.052917,0.5027086 l -0.5027087,0.03175 q 0,0 0.00529,-0.084667 0.00529,-0.089958 0.00529,-0.1905001 0,-0.2381252 -0.1428751,-0.3439586 -0.1428751,-0.1058334 -0.449792,-0.1058334 -0.2751668,0 -0.4709586,0.1322918 -0.1905001,0.1322917 -0.2910418,0.3915836 -0.09525,0.2592918 -0.09525,0.6455837 0,0.4339169 0.1058334,0.7408338 0.1111251,0.3069168 0.3122085,0.4709586 0.2010835,0.1587501 0.4762503,0.1587501 0.2910419,0 0.4550836,-0.1746251 0.1640418,-0.1746251 0.2275418,-0.5662087 l 0.5080003,-0.03175 q 0,0 -0.015875,0.089958 -0.010583,0.089958 -0.03175,0.2381251 -0.015875,0.1428751 -0.037042,0.3175002 -0.015875,0.1693334 -0.021167,0.3333752 l -0.052917,0.0635 q 0,0 -0.1534584,0.052917 -0.1534584,0.052917 -0.4180419,0.1058334 -0.2592918,0.052917 -0.5873753,0.052917 z m 2.741084,0 q -0.3386669,0 -0.5873754,-0.1481667 Q 6.1303885,6.7786273 5.9875134,6.5034605 5.84993,6.2282936 5.84993,5.8631684 q 0,-0.4021669 0.1587501,-0.7037921 0.1640418,-0.3069168 0.449792,-0.4762503 0.2910418,-0.1746251 0.6667504,-0.1746251 0.3439585,0 0.592667,0.1481668 0.2487085,0.1481668 0.3810002,0.4180419 0.1375834,0.2698752 0.1375834,0.6402921 0,0.4021669 -0.1587501,0.7090837 Q 7.9189729,6.7310023 7.6279311,6.9056274 7.3421809,7.0749608 6.9664724,7.0749608 Z M 7.0723058,6.6780856 q 0.2275418,0 0.3439585,-0.1799168 0.1217084,-0.1852084 0.1217084,-0.5397503 0,-0.3333752 -0.0635,-0.5556254 Q 7.4109726,5.1752513 7.2892642,5.0641263 7.1728475,4.9530012 7.0035141,4.9530012 q -0.2275419,0 -0.3492503,0.1799168 -0.1164167,0.1799168 -0.1164167,0.5397503 0,0.3333752 0.0635,0.560917 0.0635,0.2222501 0.1799168,0.3333752 0.1217084,0.1111251 0.2910419,0.1111251 z m 3.0268392,0.047625 q 0.132291,-0.026458 0.185208,-0.09525 0.05821,-0.074083 0.0635,-0.2010835 l 0.01587,-0.9154589 q 0,-0.2328335 -0.08467,-0.3439585 -0.08467,-0.1164168 -0.259292,-0.1164168 -0.084667,0 -0.1799171,0.037042 -0.089958,0.03175 -0.1640418,0.079375 -0.074083,0.047625 -0.1217084,0.084667 -0.00529,0.1428751 -0.015875,0.3227919 -0.010583,0.1799167 -0.021167,0.3598335 -0.00529,0.1746251 -0.010583,0.3122085 -0.00529,0.1375834 -0.00529,0.1957918 0,0.1375834 0.037042,0.1905001 0.037042,0.047625 0.1217084,0.047625 0.037042,0 0.089958,0 0.052917,-0.00529 0.052917,-0.00529 l 0.010583,0.021167 -0.052917,0.3280835 q 0,0 -0.09525,-0.00529 -0.09525,-0.00529 -0.2275418,-0.010583 -0.1270001,0 -0.2328335,0 -0.1375834,0 -0.2857501,0.00529 -0.1428751,0.010583 -0.2434169,0.015875 -0.09525,0.010583 -0.09525,0.010583 l 0.042333,-0.3280835 q 0.1534584,-0.021167 0.2116667,-0.084667 0.0635,-0.0635 0.0635,-0.2116668 v -1.121834 q 0,-0.1799168 -0.058208,-0.2487085 -0.052917,-0.068792 -0.2010834,-0.068792 h -0.068792 l -0.021167,-0.026458 0.026458,-0.2751668 q 0.2434168,-0.037042 0.465667,-0.074083 0.2222501,-0.042333 0.3651252,-0.068792 0.1428751,-0.03175 0.1428751,-0.03175 l 0.042333,0.052917 q 0,0 -0.026458,0.1164167 -0.021167,0.1111251 -0.03175,0.2487085 l 0.021167,0.021167 q 0.0635,-0.052917 0.1534585,-0.1270001 0.09525,-0.074083 0.1957918,-0.1428751 0.105833,-0.068792 0.195792,-0.1164167 0.08996,-0.047625 0.142875,-0.047625 0.375708,0 0.582084,0.1799168 0.211666,0.1799168 0.211666,0.5027087 0,0.079375 -0.01587,0.2434168 -0.01587,0.1640417 -0.03704,0.3598335 -0.01587,0.1957918 -0.03175,0.3704169 -0.01058,0.1746251 -0.01058,0.2751668 0,0.1322918 0.03704,0.1957918 0.03704,0.058208 0.127,0.058208 0.04763,0 0.105833,-0.00529 0.05821,-0.00529 0.05821,-0.00529 l 0.01058,0.021167 -0.04763,0.3227919 q 0,0 -0.0635,-0.00529 -0.05821,0 -0.148167,-0.00529 -0.08996,0 -0.185208,-0.00529 -0.09525,0 -0.174625,0 -0.07938,0 -0.179917,0.00529 -0.09525,0.010583 -0.1905,0.015875 -0.09525,0.00529 -0.15875,0.010583 -0.05821,0.010583 -0.05821,0.010583 z m 3.175003,0.3439585 0.04233,-0.3333752 q 0.111125,-0.021167 0.174626,-0.0635 0.0635,-0.042333 0.08467,-0.1270001 0.02646,-0.089958 0.02646,-0.2434168 V 5.2652097 q 0,-0.1852084 -0.05821,-0.2381251 -0.05821,-0.058208 -0.254,-0.058208 h -0.783167 q 0,0.3598336 -0.01058,0.7249588 -0.0053,0.3651252 -0.0053,0.7249588 0,0.2487084 0.216958,0.2487084 0.132292,0 0.227542,-0.00529 0.100542,-0.00529 0.100542,-0.00529 l 0.02117,0.026458 -0.05292,0.3439585 q 0,0 -0.08467,-0.00529 -0.08467,0 -0.211667,-0.00529 -0.121708,0 -0.248708,-0.00529 -0.127,0 -0.211667,0 -0.111125,0 -0.232833,0 -0.116417,0.00529 -0.227542,0.010583 -0.105834,0.010583 -0.169334,0.015875 -0.0635,0.00529 -0.0635,0.00529 l 0.03175,-0.3227919 q 0.174625,-0.021167 0.232834,-0.1005417 0.0635,-0.079375 0.0635,-0.2963335 V 5.180543 q -0.0053,-0.1217084 -0.07408,-0.1640418 -0.06879,-0.047625 -0.269876,-0.052917 l -0.02117,-0.03175 0.04233,-0.2698751 0.322792,-0.052917 q 0,-0.465667 0.169333,-0.8043338 0.169334,-0.3439586 0.486834,-0.529167 0.3175,-0.1905001 0.767292,-0.1905001 0.179917,0 0.343959,0.037042 0.169333,0.03175 0.359833,0.1164168 l 0.02117,0.079375 q 0,0 -0.02646,0.074083 -0.02646,0.068792 -0.07408,0.1852085 -0.04233,0.1164167 -0.09525,0.2592918 l -0.0635,0.015875 q 0,0 -0.04763,-0.042333 -0.04763,-0.047625 -0.137583,-0.1058334 -0.08996,-0.058208 -0.211667,-0.1005417 -0.116417,-0.047625 -0.259292,-0.047625 -0.216958,0 -0.34925,0.084667 -0.127,0.079375 -0.1905,0.2645835 -0.05821,0.1799168 -0.05821,0.4815419 l -0.0053,0.2328335 q 0.407458,0 0.66675,0 0.259292,-0.00529 0.439209,-0.015875 0.179916,-0.015875 0.333375,-0.037042 0.153458,-0.021167 0.338667,-0.058208 l 0.04763,0.084667 q -0.02646,0.058208 -0.05292,0.2275418 -0.02117,0.1640417 -0.03704,0.4127502 -0.01587,0.2487085 -0.02646,0.560917 -0.01058,0.3122085 -0.01058,0.6614587 0,0.1270001 0.03704,0.1799168 0.03704,0.052917 0.127,0.052917 0.04233,0 0.09525,-0.00529 0.05821,-0.00529 0.05821,-0.00529 l 0.01588,0.026458 -0.05292,0.3227919 q 0,0 -0.05821,-0.00529 -0.05821,0 -0.153459,-0.00529 -0.08996,0 -0.1905,-0.00529 -0.09525,0 -0.179917,0 -0.127,0 -0.275166,0.015875 -0.148167,0.015875 -0.254001,0.026458 z m 1.624547,-0.3598335 q 0.15875,-0.010583 0.211667,-0.084667 0.05821,-0.074083 0.05821,-0.2804585 V 5.2916681 q 0,-0.1799168 -0.04763,-0.2434168 -0.04763,-0.068792 -0.179916,-0.068792 -0.03175,0 -0.06879,0.00529 -0.03175,0 -0.03175,0 l -0.02646,-0.037042 0.03175,-0.2645835 q 0.227541,-0.037042 0.4445,-0.079375 0.216958,-0.042333 0.359833,-0.068792 0.148167,-0.03175 0.148167,-0.03175 l 0.04763,0.047625 q 0,0 -0.01588,0.079375 -0.01058,0.074083 -0.02117,0.1905001 -0.01058,0.111125 -0.01588,0.2275418 l 0.03175,0.021167 q 0.169333,-0.2487084 0.365125,-0.3862919 0.195792,-0.1375834 0.375708,-0.1375834 0.08467,0 0.132292,0.010583 0.05292,0.00529 0.05292,0.00529 l 0.02117,0.042333 q 0,0 -0.01588,0.089958 -0.01058,0.084667 -0.03175,0.2275418 -0.01588,0.1428751 -0.03704,0.3122085 -0.01588,0.1693334 -0.02117,0.3280835 l -0.338667,0.021167 q 0,-0.2540001 -0.03175,-0.3333752 -0.02646,-0.084667 -0.116417,-0.084667 -0.08467,0 -0.179916,0.0635 -0.09525,0.0635 -0.179917,0.1746251 0,0 -0.0053,0.09525 -0.0053,0.089958 -0.01587,0.2328335 -0.0053,0.1428751 -0.01058,0.2910418 -0.0053,0.1481668 -0.01058,0.2592918 -0.0053,0.1111251 -0.0053,0.1428751 0,0.1375834 0.04233,0.1905001 0.04763,0.052917 0.164042,0.052917 0.07408,0 0.169333,-0.00529 0.09525,-0.010583 0.09525,-0.010583 l 0.01588,0.03175 -0.05821,0.3492502 q 0,0 -0.06879,-0.00529 -0.06879,-0.00529 -0.179916,-0.010583 -0.105834,0 -0.222251,-0.00529 -0.116416,0 -0.211666,0 -0.15875,0 -0.312209,0.00529 -0.153458,0.00529 -0.254,0.010583 -0.09525,0.00529 -0.09525,0.00529 z m 3.630082,0.015875 q 0.127,-0.026458 0.179917,-0.09525 0.05821,-0.074083 0.0635,-0.2010835 l 0.01588,-0.9154589 q 0,-0.2328335 -0.08467,-0.3439585 -0.08467,-0.1164168 -0.259292,-0.1164168 -0.08467,0 -0.179917,0.037042 -0.08996,0.037042 -0.169333,0.084667 -0.07408,0.047625 -0.116417,0.079375 -0.01058,0.1428751 -0.02117,0.3227919 -0.0053,0.1799167 -0.01588,0.3598335 -0.0053,0.1746251 -0.01058,0.3122085 -0.0053,0.1375834 -0.0053,0.1957918 0,0.1375834 0.03704,0.1905001 0.03704,0.047625 0.121709,0.047625 0.03704,0 0.08996,0 0.05292,-0.00529 0.05292,-0.00529 l 0.01058,0.021167 -0.05292,0.3280835 q 0,0 -0.09525,-0.00529 -0.09525,-0.00529 -0.227541,-0.010583 -0.127001,0 -0.232834,0 -0.137583,0 -0.28575,0 -0.142875,0.00529 -0.243417,0.010583 -0.100542,0.00529 -0.100542,0.00529 l 0.04763,-0.3227919 q 0.153459,-0.015875 0.211667,-0.074083 0.0635,-0.0635 0.0635,-0.2116668 v -1.121834 q 0,-0.1799168 -0.05821,-0.2487085 -0.05292,-0.068792 -0.201084,-0.068792 h -0.06879 l -0.02117,-0.026458 0.02646,-0.2751668 q 0.243417,-0.037042 0.460376,-0.074083 0.22225,-0.042333 0.365125,-0.068792 0.148167,-0.03175 0.148167,-0.03175 l 0.04233,0.052917 q 0,0 -0.02646,0.1164167 -0.02117,0.1111251 -0.03175,0.2487085 l 0.01587,0.015875 q 0.0635,-0.052917 0.15875,-0.1217084 0.100541,-0.074083 0.201083,-0.1428751 0.105834,-0.074083 0.195792,-0.1164167 0.08996,-0.047625 0.137583,-0.047625 0.296334,0 0.486834,0.1111251 0.1905,0.1111251 0.259292,0.3280835 0.05821,-0.047625 0.153458,-0.1217084 0.09525,-0.074083 0.201084,-0.1428751 0.105833,-0.074083 0.201083,-0.1217084 0.09525,-0.052917 0.148167,-0.052917 0.381,0 0.587375,0.1852085 0.211667,0.1799168 0.211667,0.497417 0,0.079375 -0.01588,0.2434168 -0.01588,0.1640417 -0.03704,0.3598335 -0.01588,0.1957918 -0.03175,0.3704169 -0.01588,0.1746251 -0.01588,0.2751668 0,0.1428751 0.03704,0.2010835 0.04233,0.052917 0.132292,0.052917 0.04763,0 0.105833,-0.00529 0.05821,-0.00529 0.05821,-0.00529 l 0.01058,0.021167 -0.05292,0.3227919 q 0,0 -0.0635,-0.00529 -0.05821,0 -0.148167,-0.00529 -0.08996,0 -0.1905,-0.00529 -0.09525,0 -0.174625,0 -0.07408,0 -0.174625,0.00529 -0.09525,0.00529 -0.185208,0.00529 -0.08996,0.00529 -0.153459,0.010583 -0.05821,0.00529 -0.05821,0.00529 l 0.03704,-0.3280835 q 0.121709,-0.021167 0.174626,-0.079375 0.05292,-0.0635 0.05292,-0.2010835 l 0.01587,-0.9154589 q 0.0053,-0.2328335 -0.07937,-0.3439585 -0.08467,-0.1164168 -0.264583,-0.1164168 -0.08467,0 -0.174625,0.03175 -0.08467,0.03175 -0.15875,0.079375 -0.07408,0.047625 -0.121709,0.084667 l -0.06879,1.1906257 q 0,0.1322918 0.03704,0.1957918 0.03704,0.058208 0.127,0.058208 0.04233,0 0.09525,-0.00529 0.05292,-0.00529 0.05292,-0.00529 l 0.01058,0.021167 -0.05292,0.3227919 q 0,0 -0.05821,-0.00529 -0.05821,0 -0.148167,-0.00529 -0.08467,0 -0.179916,-0.00529 -0.09525,0 -0.169334,0 -0.07938,0 -0.179917,0.00529 -0.09525,0.010583 -0.1905,0.015875 -0.09525,0.00529 -0.15875,0.010583 -0.0635,0.010583 -0.0635,0.010583 z"
       id="text4"
       style="font-weight:bold;font-size:5.29167px;font-family:Alegreya;-inkscape-font-specification:'Alegreya Bold';fill:#018000;stroke-width:0.264583;fill-opacity:1"
       aria-label="Confirm" />
  </g>
</svg>
