<?xml version="1.0" encoding="UTF-8" standalone="no"?>
<!-- Created with Inkscape (http://www.inkscape.org/) -->

<svg
   width="24"
   height="24"
   viewBox="0 0 6.3499999 6.35"
   version="1.1"
   id="svg1"
   inkscape:version="1.3 (0e150ed6c4, 2023-07-21)"
   sodipodi:docname="info icon.svg"
   xmlns:inkscape="http://www.inkscape.org/namespaces/inkscape"
   xmlns:sodipodi="http://sodipodi.sourceforge.net/DTD/sodipodi-0.dtd"
   xmlns="http://www.w3.org/2000/svg"
   xmlns:svg="http://www.w3.org/2000/svg">
  <sodipodi:namedview
     id="namedview1"
     pagecolor="#505050"
     bordercolor="#eeeeee"
     borderopacity="1"
     inkscape:showpageshadow="0"
     inkscape:pageopacity="0"
     inkscape:pagecheckerboard="0"
     inkscape:deskcolor="#d1d1d1"
     inkscape:document-units="px"
     inkscape:zoom="23.404489"
     inkscape:cx="9.592177"
     inkscape:cy="10.403987"
     inkscape:window-width="1920"
     inkscape:window-height="1017"
     inkscape:window-x="-8"
     inkscape:window-y="-8"
     inkscape:window-maximized="1"
     inkscape:current-layer="layer1" />
  <defs
     id="defs1" />
  <g
     inkscape:label="Layer 1"
     inkscape:groupmode="layer"
     id="layer1">
    <circle
       style="fill:none;fill-opacity:1;stroke:#ffffff;stroke-width:0.488462;stroke-linecap:round;stroke-linejoin:round;stroke-miterlimit:2;stroke-dasharray:none;stroke-opacity:1"
       id="path1"
       cx="3.1750002"
       cy="3.1750002"
       r="2.9307692" />
    <path
       id="path2"
       style="font-style:italic;font-weight:600;font-size:6.21162px;font-family:Alegreya;-inkscape-font-specification:'Alegreya Semi-Bold Italic';text-align:center;text-anchor:middle;fill:#ffffff;stroke-width:0.258818;stroke-linecap:round;stroke-linejoin:round;stroke-miterlimit:2"
       d="M 3.5093465 1.0764201 C 3.364409 1.0764201 3.2444063 1.1263792 3.1491618 1.225765 C 3.0539169 1.3210099 3.006018 1.4430723 3.006018 1.5921509 C 3.006018 1.6873958 3.0333161 1.7703164 3.08715 1.8407145 C 3.145125 1.9069714 3.2316493 1.9399333 3.3475993 1.9399333 C 3.4925365 1.9399333 3.6130558 1.8904912 3.7083008 1.7911051 C 3.8076867 1.6917192 3.8571289 1.5717168 3.8571289 1.4309204 C 3.8571289 1.3315345 3.8282874 1.2486138 3.7703125 1.1823568 C 3.7123375 1.1119588 3.6252968 1.0764203 3.5093465 1.0764201 z M 3.6519734 2.5672851 C 3.5318827 2.5755651 3.401579 2.5838078 3.2607829 2.5920898 C 3.1241275 2.6003698 2.9897041 2.6065533 2.8571899 2.6106933 C 2.7288168 2.6148333 2.6170544 2.6168945 2.5218099 2.6168945 L 2.4722005 2.9398722 L 2.7016439 2.9398722 C 2.7886058 2.9398722 2.8509258 2.9589306 2.8881958 2.9961995 C 2.9254657 3.0334695 2.9440063 3.0973324 2.9440063 3.1884358 C 2.9440063 3.2257058 2.9316463 3.3374679 2.9067993 3.5238159 C 2.8819533 3.7060228 2.8469312 3.9424251 2.8013794 4.2322998 C 2.7558274 4.5221745 2.7017484 4.8492213 2.6396321 5.2136352 C 2.6396321 5.3999832 2.7246133 5.4932047 2.8943969 5.4932047 C 2.9689359 5.4932047 3.0518571 5.4684836 3.1429606 5.4187906 C 3.2340645 5.3649587 3.3417062 5.2820359 3.4659383 5.170227 C 3.5943114 5.0584182 3.7410956 4.9131777 3.9067383 4.7351115 L 3.8137207 4.536674 L 3.7145019 4.5242716 C 3.5530008 4.6650681 3.4474185 4.7562295 3.3977254 4.7976399 C 3.3480324 4.8349099 3.3083733 4.8534505 3.2793864 4.8534505 L 3.2607829 4.834847 C 3.2897702 4.6195114 3.3294289 4.3831092 3.3791219 4.1263631 C 3.4288146 3.8654757 3.4823775 3.6069292 3.5403523 3.3501831 C 3.6024685 3.0934368 3.6647877 2.8637306 3.7269043 2.6608195 L 3.6519734 2.5672851 z " />
  </g>
</svg>
